<svg width="44" height="8" viewBox="0 0 44 8" fill="none" xmlns="http://www.w3.org/2000/svg">
<path d="M44 4C44 1.79086 42.2091 0 40 0C37.7909 0 36 1.79086 36 4C36 6.20914 37.7909 8 40 8C42.2091 8 44 6.20914 44 4ZM40 4V3.25H38.5714V4V4.75H40V4ZM35.7143 4V3.25L32.8571 3.25V4V4.75H35.7143V4ZM30 4V3.25L27.1429 3.25V4V4.75L30 4.75V4ZM24.2857 4V3.25L21.4286 3.25V4V4.75H24.2857V4ZM18.5714 4V3.25L15.7143 3.25V4V4.75H18.5714V4ZM12.8571 4V3.25H9.99999V4V4.75H12.8571V4ZM7.14285 4V3.25L4.28571 3.25V4V4.75L7.14285 4.75V4ZM1.42857 4V3.25H0V4V4.75L1.42857 4.75V4Z" fill="#99CDFF"/>
</svg>
